<?xml version="1.0" encoding="UTF-8"?>
<svg version="1.1" xmlns="http://www.w3.org/2000/svg" width="282" height="497">
<path d="M0 0 C0.81971934 -0.00226556 1.63943868 -0.00453111 2.483998 -0.00686532 C5.21665672 -0.01316944 7.94926538 -0.01237827 10.68193054 -0.0115509 C12.64700891 -0.01454463 14.61208669 -0.01794765 16.5771637 -0.02172852 C21.90576623 -0.03055088 27.23435269 -0.03290589 32.56296182 -0.0335443 C35.89467997 -0.03425579 39.22639405 -0.036392 42.55811119 -0.03904152 C54.18874241 -0.04828904 65.81936218 -0.05237714 77.44999695 -0.05158997 C88.27959467 -0.0509893 99.10914256 -0.06154046 109.93872768 -0.07733363 C119.24680608 -0.09042266 128.55486822 -0.09577329 137.86295575 -0.09513456 C143.41767103 -0.09487997 148.97234202 -0.09770924 154.52704811 -0.10831261 C159.75307954 -0.11801653 164.97902452 -0.11805703 170.20505905 -0.11079597 C172.1181965 -0.10975299 174.03133941 -0.11209594 175.94446754 -0.11815643 C192.50884391 -0.1672127 204.7252661 0.64885772 217.46977234 12.50871277 C220.97797485 16.26870014 223.53358068 20.43250166 225.59477234 25.13371277 C225.85226257 25.68478699 226.10975281 26.23586121 226.37504578 26.80363464 C229.32155183 34.08323783 229.17228225 41.74649649 229.30326843 49.47941589 C229.34444623 51.86482167 229.40726953 54.24888981 229.47367859 56.63371277 C229.69163488 65.54215565 229.51170328 74.25955283 228.59477234 83.13371277 C229.58477234 83.13371277 230.57477234 83.13371277 231.59477234 83.13371277 C232.50939202 87.79345577 232.73758294 92.30291234 232.72416687 97.03507996 C232.72679535 98.18737343 232.72679535 98.18737343 232.72947693 99.36294556 C232.73385516 101.88551637 232.73097287 104.40801632 232.72758484 106.93058777 C232.72825876 108.68842075 232.72922952 110.44625364 232.73048401 112.2040863 C232.73195528 115.87904248 232.72982373 119.55397428 232.72514343 123.22892761 C232.71942965 127.94575806 232.72273915 132.6625318 232.7287159 137.3793602 C232.73232258 141.00464814 232.73118272 144.62992254 232.7285881 148.25521088 C232.72792 149.99519609 232.7287432 151.73518253 232.73106766 153.47516632 C232.73359774 155.90011883 232.72974931 158.32497817 232.72416687 160.74992371 C232.7261911 161.47201523 232.72821533 162.19410675 232.7303009 162.93807983 C232.70904041 167.90517663 232.70904041 167.90517663 231.59477234 170.13371277 C230.60477234 170.13371277 229.61477234 170.13371277 228.59477234 170.13371277 C228.66572491 170.80517712 228.73667747 171.47664146 228.80978012 172.16845322 C229.45829296 178.70345215 229.73196764 185.1370473 229.70121765 191.70109558 C229.70052025 192.7430584 229.69982285 193.78502121 229.69910431 194.85855865 C229.69534748 198.43467784 229.68412371 202.0107347 229.67289734 205.58683777 C229.6680468 208.25686152 229.66357426 210.92688369 229.65953064 213.59690857 C229.65073775 218.95950667 229.63934914 224.3220925 229.62582374 229.6846807 C229.60405495 238.3303671 229.58832107 246.9760421 229.57792664 255.62174988 C229.57661255 256.70976788 229.57529847 257.79778588 229.57394457 258.91877413 C229.5712315 261.17344602 229.56851943 263.42811791 229.5658083 265.6827898 C229.53718286 289.02555229 229.48382017 312.36817269 229.41085052 335.71083832 C229.37073133 348.69213188 229.33842908 361.67335938 229.32377625 374.65470886 C229.310771 386.16386577 229.28390431 397.67289101 229.24015927 409.1819737 C229.21765618 415.22214631 229.20185561 421.26215751 229.20288849 427.30237579 C229.20363321 432.93390421 229.18575863 438.56506702 229.15360451 444.19650078 C229.14511012 446.25318421 229.14335242 448.30990865 229.14896965 450.36660194 C229.19605432 470.25119085 229.19605432 470.25119085 224.59477234 478.13371277 C224.06754578 479.07086121 223.54031921 480.00800964 222.99711609 480.97355652 C222.51371765 481.66578308 222.03031921 482.35800964 221.53227234 483.07121277 C220.8033075 484.13662292 220.8033075 484.13662292 220.05961609 485.22355652 C218.66906537 487.03683465 217.32378924 488.63898 215.59477234 490.13371277 C214.93477234 490.13371277 214.27477234 490.13371277 213.59477234 490.13371277 C213.59477234 490.79371277 213.59477234 491.45371277 213.59477234 492.13371277 C207.29112684 496.2726635 202.50719917 497.86824745 194.99993896 497.77536011 C194.07642197 497.78386563 193.15290497 497.79237115 192.2014026 497.80113441 C189.12908572 497.82329143 186.05799296 497.81000093 182.98564148 497.79655457 C180.7739577 497.80497309 178.56228109 497.81550056 176.35061646 497.82797241 C170.35880586 497.85498965 164.3674122 497.85032765 158.37556767 497.83827186 C153.36809467 497.83113246 148.36069837 497.83964536 143.35323137 497.84817725 C130.86300238 497.86925865 118.37297328 497.86013566 105.88277005 497.83670095 C95.72584602 497.81845441 85.56928561 497.82935282 75.41239929 497.86100769 C63.59858635 497.8978248 51.78495639 497.91412007 39.97107214 497.90159541 C33.72435568 497.89511477 27.47794506 497.89708045 21.23126411 497.92091942 C15.3565565 497.94219804 9.48259571 497.93415795 3.60793495 497.90382576 C1.45614391 497.8975077 -0.69570534 497.90133645 -2.84745407 497.91623688 C-23.71936239 498.0490193 -23.71936239 498.0490193 -31.40522766 491.13371277 C-32.25858704 490.38347839 -33.11194641 489.63324402 -33.99116516 488.86027527 C-43.11251033 478.14568204 -45.71625969 468.7956789 -45.64573669 454.86480713 C-45.64744554 453.62967689 -45.64915439 452.39454666 -45.65091503 451.12198824 C-45.65363424 447.70584386 -45.6474046 444.28992996 -45.6373589 440.87381351 C-45.62870615 437.18542233 -45.63164586 433.49703801 -45.63316345 429.80863953 C-45.63421115 423.42228581 -45.6279466 417.03597302 -45.61668777 410.64962959 C-45.60042012 401.4161032 -45.59522347 392.18259656 -45.59271179 382.94905739 C-45.58833668 367.96754784 -45.57503255 352.98606009 -45.55610657 338.00456238 C-45.53774302 323.45313119 -45.52358884 308.90170594 -45.51509094 294.3502655 C-45.5145655 293.4530189 -45.51404005 292.55577229 -45.51349868 291.6313364 C-45.51088857 287.13002543 -45.50836116 282.62871442 -45.50587487 278.12740338 C-45.48514809 240.79615778 -45.44992755 203.46493697 -45.40522766 166.13371277 C-46.39522766 166.13371277 -47.38522766 166.13371277 -48.40522766 166.13371277 C-48.60412952 161.98834536 -48.78726402 157.84242055 -48.96772766 153.69621277 C-49.02380188 152.5315448 -49.0798761 151.36687683 -49.13764954 150.16691589 C-49.41181816 143.67825839 -49.33369525 137.56421052 -48.40522766 131.13371277 C-47.41522766 131.13371277 -46.42522766 131.13371277 -45.40522766 131.13371277 C-45.40522766 126.84371277 -45.40522766 122.55371277 -45.40522766 118.13371277 C-46.39522766 117.80371277 -47.38522766 117.47371277 -48.40522766 117.13371277 C-49.23753737 110.13302118 -49.56036597 103.2435531 -49.53022766 96.19621277 C-49.53409485 95.26486511 -49.53796204 94.33351746 -49.54194641 93.37394714 C-49.54065735 92.48127136 -49.53936829 91.58859558 -49.53804016 90.66886902 C-49.53691223 89.86844177 -49.5357843 89.06801453 -49.53462219 88.24333191 C-49.40522766 86.13371277 -49.40522766 86.13371277 -48.40522766 83.13371277 C-47.41522766 83.13371277 -46.42522766 83.13371277 -45.40522766 83.13371277 C-45.41411011 82.53173569 -45.42299255 81.92975861 -45.43214417 81.30953979 C-45.52119392 74.99834263 -45.58119914 68.68732627 -45.62495422 62.37565613 C-45.64496941 60.02564739 -45.6721901 57.67568781 -45.70698547 55.32585144 C-45.7559489 51.9322541 -45.77829826 48.53931981 -45.79585266 45.14543152 C-45.8164978 44.10851669 -45.83714294 43.07160187 -45.8584137 42.00326538 C-45.8623136 29.09232346 -41.07722559 20.10334629 -32.30366516 10.93840027 C-22.87229169 1.90694369 -12.79150029 -0.02624155 0 0 Z " fill="#E0F3FA" transform="translate(49.40522766113281,-0.1337127685546875)"/>
<path d="M0 0 C0.81971934 -0.00226556 1.63943868 -0.00453111 2.483998 -0.00686532 C5.21665672 -0.01316944 7.94926538 -0.01237827 10.68193054 -0.0115509 C12.64700891 -0.01454463 14.61208669 -0.01794765 16.5771637 -0.02172852 C21.90576623 -0.03055088 27.23435269 -0.03290589 32.56296182 -0.0335443 C35.89467997 -0.03425579 39.22639405 -0.036392 42.55811119 -0.03904152 C54.18874241 -0.04828904 65.81936218 -0.05237714 77.44999695 -0.05158997 C88.27959467 -0.0509893 99.10914256 -0.06154046 109.93872768 -0.07733363 C119.24680608 -0.09042266 128.55486822 -0.09577329 137.86295575 -0.09513456 C143.41767103 -0.09487997 148.97234202 -0.09770924 154.52704811 -0.10831261 C159.75307954 -0.11801653 164.97902452 -0.11805703 170.20505905 -0.11079597 C172.1181965 -0.10975299 174.03133941 -0.11209594 175.94446754 -0.11815643 C192.50884391 -0.1672127 204.7252661 0.64885772 217.46977234 12.50871277 C220.97797485 16.26870014 223.53358068 20.43250166 225.59477234 25.13371277 C225.85226257 25.68478699 226.10975281 26.23586121 226.37504578 26.80363464 C229.32155183 34.08323783 229.17228225 41.74649649 229.30326843 49.47941589 C229.34444623 51.86482167 229.40726953 54.24888981 229.47367859 56.63371277 C229.69163488 65.54215565 229.51170328 74.25955283 228.59477234 83.13371277 C229.58477234 83.13371277 230.57477234 83.13371277 231.59477234 83.13371277 C232.50939202 87.79345577 232.73758294 92.30291234 232.72416687 97.03507996 C232.72679535 98.18737343 232.72679535 98.18737343 232.72947693 99.36294556 C232.73385516 101.88551637 232.73097287 104.40801632 232.72758484 106.93058777 C232.72825876 108.68842075 232.72922952 110.44625364 232.73048401 112.2040863 C232.73195528 115.87904248 232.72982373 119.55397428 232.72514343 123.22892761 C232.71942965 127.94575806 232.72273915 132.6625318 232.7287159 137.3793602 C232.73232258 141.00464814 232.73118272 144.62992254 232.7285881 148.25521088 C232.72792 149.99519609 232.7287432 151.73518253 232.73106766 153.47516632 C232.73359774 155.90011883 232.72974931 158.32497817 232.72416687 160.74992371 C232.7261911 161.47201523 232.72821533 162.19410675 232.7303009 162.93807983 C232.70904041 167.90517663 232.70904041 167.90517663 231.59477234 170.13371277 C230.60477234 170.13371277 229.61477234 170.13371277 228.59477234 170.13371277 C228.66572491 170.80517712 228.73667747 171.47664146 228.80978012 172.16845322 C229.45829296 178.70345215 229.73196764 185.1370473 229.70121765 191.70109558 C229.70052025 192.7430584 229.69982285 193.78502121 229.69910431 194.85855865 C229.69534748 198.43467784 229.68412371 202.0107347 229.67289734 205.58683777 C229.6680468 208.25686152 229.66357426 210.92688369 229.65953064 213.59690857 C229.65073775 218.95950667 229.63934914 224.3220925 229.62582374 229.6846807 C229.60405495 238.3303671 229.58832107 246.9760421 229.57792664 255.62174988 C229.57661255 256.70976788 229.57529847 257.79778588 229.57394457 258.91877413 C229.5712315 261.17344602 229.56851943 263.42811791 229.5658083 265.6827898 C229.53718286 289.02555229 229.48382017 312.36817269 229.41085052 335.71083832 C229.37073133 348.69213188 229.33842908 361.67335938 229.32377625 374.65470886 C229.310771 386.16386577 229.28390431 397.67289101 229.24015927 409.1819737 C229.21765618 415.22214631 229.20185561 421.26215751 229.20288849 427.30237579 C229.20363321 432.93390421 229.18575863 438.56506702 229.15360451 444.19650078 C229.14511012 446.25318421 229.14335242 448.30990865 229.14896965 450.36660194 C229.19605432 470.25119085 229.19605432 470.25119085 224.59477234 478.13371277 C224.06754578 479.07086121 223.54031921 480.00800964 222.99711609 480.97355652 C222.51371765 481.66578308 222.03031921 482.35800964 221.53227234 483.07121277 C220.8033075 484.13662292 220.8033075 484.13662292 220.05961609 485.22355652 C218.66906537 487.03683465 217.32378924 488.63898 215.59477234 490.13371277 C214.93477234 490.13371277 214.27477234 490.13371277 213.59477234 490.13371277 C213.59477234 490.79371277 213.59477234 491.45371277 213.59477234 492.13371277 C207.29112684 496.2726635 202.50719917 497.86824745 194.99993896 497.77536011 C194.07642197 497.78386563 193.15290497 497.79237115 192.2014026 497.80113441 C189.12908572 497.82329143 186.05799296 497.81000093 182.98564148 497.79655457 C180.7739577 497.80497309 178.56228109 497.81550056 176.35061646 497.82797241 C170.35880586 497.85498965 164.3674122 497.85032765 158.37556767 497.83827186 C153.36809467 497.83113246 148.36069837 497.83964536 143.35323137 497.84817725 C130.86300238 497.86925865 118.37297328 497.86013566 105.88277005 497.83670095 C95.72584602 497.81845441 85.56928561 497.82935282 75.41239929 497.86100769 C63.59858635 497.8978248 51.78495639 497.91412007 39.97107214 497.90159541 C33.72435568 497.89511477 27.47794506 497.89708045 21.23126411 497.92091942 C15.3565565 497.94219804 9.48259571 497.93415795 3.60793495 497.90382576 C1.45614391 497.8975077 -0.69570534 497.90133645 -2.84745407 497.91623688 C-23.71936239 498.0490193 -23.71936239 498.0490193 -31.40522766 491.13371277 C-32.25858704 490.38347839 -33.11194641 489.63324402 -33.99116516 488.86027527 C-43.11251033 478.14568204 -45.71625969 468.7956789 -45.64573669 454.86480713 C-45.64744554 453.62967689 -45.64915439 452.39454666 -45.65091503 451.12198824 C-45.65363424 447.70584386 -45.6474046 444.28992996 -45.6373589 440.87381351 C-45.62870615 437.18542233 -45.63164586 433.49703801 -45.63316345 429.80863953 C-45.63421115 423.42228581 -45.6279466 417.03597302 -45.61668777 410.64962959 C-45.60042012 401.4161032 -45.59522347 392.18259656 -45.59271179 382.94905739 C-45.58833668 367.96754784 -45.57503255 352.98606009 -45.55610657 338.00456238 C-45.53774302 323.45313119 -45.52358884 308.90170594 -45.51509094 294.3502655 C-45.5145655 293.4530189 -45.51404005 292.55577229 -45.51349868 291.6313364 C-45.51088857 287.13002543 -45.50836116 282.62871442 -45.50587487 278.12740338 C-45.48514809 240.79615778 -45.44992755 203.46493697 -45.40522766 166.13371277 C-46.39522766 166.13371277 -47.38522766 166.13371277 -48.40522766 166.13371277 C-48.60412952 161.98834536 -48.78726402 157.84242055 -48.96772766 153.69621277 C-49.02380188 152.5315448 -49.0798761 151.36687683 -49.13764954 150.16691589 C-49.41181816 143.67825839 -49.33369525 137.56421052 -48.40522766 131.13371277 C-47.41522766 131.13371277 -46.42522766 131.13371277 -45.40522766 131.13371277 C-45.40522766 126.84371277 -45.40522766 122.55371277 -45.40522766 118.13371277 C-46.39522766 117.80371277 -47.38522766 117.47371277 -48.40522766 117.13371277 C-49.23753737 110.13302118 -49.56036597 103.2435531 -49.53022766 96.19621277 C-49.53409485 95.26486511 -49.53796204 94.33351746 -49.54194641 93.37394714 C-49.54065735 92.48127136 -49.53936829 91.58859558 -49.53804016 90.66886902 C-49.53691223 89.86844177 -49.5357843 89.06801453 -49.53462219 88.24333191 C-49.40522766 86.13371277 -49.40522766 86.13371277 -48.40522766 83.13371277 C-47.41522766 83.13371277 -46.42522766 83.13371277 -45.40522766 83.13371277 C-45.41411011 82.53173569 -45.42299255 81.92975861 -45.43214417 81.30953979 C-45.52119392 74.99834263 -45.58119914 68.68732627 -45.62495422 62.37565613 C-45.64496941 60.02564739 -45.6721901 57.67568781 -45.70698547 55.32585144 C-45.7559489 51.9322541 -45.77829826 48.53931981 -45.79585266 45.14543152 C-45.8164978 44.10851669 -45.83714294 43.07160187 -45.8584137 42.00326538 C-45.8623136 29.09232346 -41.07722559 20.10334629 -32.30366516 10.93840027 C-22.87229169 1.90694369 -12.79150029 -0.02624155 0 0 Z M-28.65522766 22.38371277 C-36.07512561 31.91377255 -35.97081496 42.04871163 -35.88624573 53.58479309 C-35.88799172 55.3588407 -35.89149715 57.1328873 -35.89660239 58.90692842 C-35.90552066 63.76434176 -35.8895821 68.62140041 -35.86949015 73.47876859 C-35.85218408 78.72335854 -35.85806408 83.96792919 -35.86109924 89.21253967 C-35.86319461 98.29336392 -35.85066589 107.37407303 -35.82814789 116.45486832 C-35.79561209 129.58408534 -35.78521924 142.71324681 -35.78019592 155.84249978 C-35.77144576 177.1448432 -35.74483771 198.44712529 -35.70698547 219.74943542 C-35.67025819 240.44018752 -35.64194992 261.13092293 -35.62495422 281.82170105 C-35.62390333 283.09750792 -35.62285244 284.37331479 -35.6217697 285.68778248 C-35.61654947 292.08825853 -35.61149466 298.48873469 -35.60652208 304.88921094 C-35.56506873 357.97075394 -35.49462785 411.05223036 -35.40522766 464.13371277 C-34.41522766 464.13371277 -33.42522766 464.13371277 -32.40522766 464.13371277 C-32.40522766 463.47371277 -32.40522766 462.81371277 -32.40522766 462.13371277 C-31.68335266 462.03058777 -30.96147766 461.92746277 -30.21772766 461.82121277 C-27.07950807 461.05409242 -25.15003006 459.84150415 -22.40522766 458.13371277 C-21.24370867 457.43632845 -20.08085786 456.7411593 -18.91694641 456.04777527 C-12.37541002 452.1337305 -5.85643493 448.19558401 0.59477234 444.13371277 C2.04883484 443.32933777 2.04883484 443.32933777 3.53227234 442.50871277 C5.90265625 441.2332954 5.90265625 441.2332954 6.59477234 438.13371277 C8.53227234 437.50871277 8.53227234 437.50871277 10.59477234 437.13371277 C11.25477234 436.80371277 11.91477234 436.47371277 12.59477234 436.13371277 C12.59477234 435.47371277 12.59477234 434.81371277 12.59477234 434.13371277 C14.01789734 433.73152527 14.01789734 433.73152527 15.46977234 433.32121277 C18.84744507 432.38384689 18.84744507 432.38384689 20.59477234 429.13371277 C21.48164734 428.72121277 22.36852234 428.30871277 23.28227234 427.88371277 C26.89060601 425.97742328 29.06119923 423.83229631 31.78617859 420.85246277 C33.88371078 418.85912764 36.10092881 417.59651949 38.59477234 416.13371277 C40.38912509 414.81086877 42.16021472 413.4559177 43.90727234 412.07121277 C44.79028015 411.37898621 45.67328796 410.68675964 46.58305359 409.97355652 C47.24692078 409.36640808 47.91078796 408.75925964 48.59477234 408.13371277 C48.59477234 407.47371277 48.59477234 406.81371277 48.59477234 406.13371277 C49.25477234 406.13371277 49.91477234 406.13371277 50.59477234 406.13371277 C52.32438317 404.50892683 53.95586232 402.84783847 55.59477234 401.13371277 C64.18525721 392.36888226 64.18525721 392.36888226 67.90727234 389.38371277 C70.56561266 387.15812552 72.60388062 384.96690483 74.59477234 382.13371277 C74.59477234 381.47371277 74.59477234 380.81371277 74.59477234 380.13371277 C75.19547546 379.86945496 75.79617859 379.60519714 76.41508484 379.33293152 C78.69053837 378.08102429 79.84729557 376.94910075 81.46977234 374.94621277 C81.97508484 374.33004089 82.48039734 373.71386902 83.00102234 373.07902527 C83.78992859 372.11609558 83.78992859 372.11609558 84.59477234 371.13371277 C86.22355895 369.29022247 87.85525534 367.44953053 89.49320984 365.61418152 C90.79375481 364.17384029 90.79375481 364.17384029 90.59477234 362.13371277 C91.43201843 361.82820496 91.43201843 361.82820496 92.28617859 361.51652527 C95.46270724 359.61383298 97.36276737 356.93618286 99.53227234 354.00871277 C99.97393738 353.42484802 100.41560242 352.84098328 100.87065125 352.23942566 C103.65632892 348.51781379 106.20322463 344.71668149 108.56742859 340.71183777 C109.96202828 338.56956296 111.79391732 336.93456779 113.59477234 335.13371277 C113.59477234 334.14371277 113.59477234 333.15371277 113.59477234 332.13371277 C114.25477234 332.13371277 114.91477234 332.13371277 115.59477234 332.13371277 C117.12783324 330.01634182 118.53049599 327.91237675 119.90727234 325.69621277 C120.31316589 325.05458191 120.71905945 324.41295105 121.13725281 323.75187683 C123.69823996 319.67193815 126.07239245 315.5236358 128.34867859 311.27824402 C129.8108636 308.76181904 131.46042351 306.43532138 133.15727234 304.07121277 C136.92005709 298.79841679 139.62404469 293.47963793 142.09477234 287.50871277 C143.59477234 284.13371277 143.59477234 284.13371277 145.53227234 281.32121277 C147.70071791 277.96997871 148.98248951 274.7529818 150.39164734 271.03996277 C151.79944635 267.63930541 153.46479019 264.39794286 155.15727234 261.13371277 C157.66030388 256.27585119 159.57417819 251.52698652 160.98149109 246.24308777 C161.82374357 243.34616842 163.2006633 240.80070396 164.59477234 238.13371277 C164.92477234 237.14371277 165.25477234 236.15371277 165.59477234 235.13371277 C166.59477234 232.13371277 166.59477234 232.13371277 168.09477234 229.38371277 C169.75155993 225.79400632 170.36881624 222.51653507 171.06352234 218.64933777 C171.70007883 215.63505554 172.72807849 212.92268337 173.87211609 210.07121277 C174.61944862 208.06755365 175.15735669 206.08710225 175.65727234 204.00871277 C176.59477234 200.13371277 176.59477234 200.13371277 177.65727234 197.25871277 C178.73983567 193.65016833 179.01746905 190.24943057 179.25102234 186.50090027 C179.59477234 184.13371277 179.59477234 184.13371277 180.54008484 182.31022644 C182.61391537 178.03055071 183.1802161 173.21052595 184.09477234 168.57121277 C184.31689392 167.45601257 184.5390155 166.34081238 184.76786804 165.19181824 C186.37481841 156.86711279 187.43991867 148.59508726 188.19633484 140.15715027 C188.49828375 136.85103962 188.9982948 133.64039885 189.65727234 130.38371277 C190.81060422 124.67111579 191.06244194 118.9324152 191.34867859 113.12590027 C191.59477234 110.13371277 191.59477234 110.13371277 192.59477234 109.13371277 C192.73984576 107.66783559 192.82188087 106.19559962 192.87602234 104.72355652 C192.91340515 103.81541199 192.95078796 102.90726746 192.98930359 101.97160339 C193.02410828 101.01447449 193.05891296 100.05734558 193.09477234 99.07121277 C193.16460199 97.20520927 193.23747588 95.339317 193.31352234 93.47355652 C193.34381531 92.64203064 193.37410828 91.81050476 193.40531921 90.95378113 C193.55100592 88.78518939 193.80088238 86.62341326 194.09477234 84.46989441 C194.74366122 79.45816861 194.80452444 74.46288433 194.87602234 69.41496277 C194.90363647 67.89074707 194.90363647 67.89074707 194.93180847 66.33573914 C194.99016162 63.10178535 195.04306207 59.86777912 195.09477234 56.63371277 C195.70785526 18.794464 195.70785526 18.794464 197.59477234 13.13371277 C194.03857174 9.57751217 189.65666866 10.01746924 184.81371003 9.99064517 C184.06468768 9.99151165 183.31566532 9.99237813 182.54394531 9.99327087 C181.73818548 9.99029975 180.93242565 9.98732863 180.10224885 9.98426747 C177.40484052 9.97560256 174.70747668 9.97407409 172.01005554 9.97257996 C170.07482814 9.96795019 168.13960165 9.96292532 166.20437622 9.95753479 C160.94797049 9.94442338 155.69157754 9.93796819 150.43515801 9.93352413 C147.14934827 9.93059116 143.86354199 9.9264859 140.57773399 9.92201996 C130.291988 9.90834786 120.00624997 9.89868 109.72049552 9.89481807 C97.85695911 9.89033898 85.99353801 9.87279677 74.13003665 9.84381747 C64.95363229 9.82218207 55.77726032 9.81211278 46.60083073 9.81077695 C41.12318848 9.80973019 35.64565467 9.80384976 30.16803932 9.78595734 C25.0125914 9.76944475 19.85733305 9.76733666 14.70186806 9.77609634 C12.81452933 9.77686503 10.92718028 9.77254631 9.0398674 9.76263809 C-6.27411534 9.68698588 -17.63579113 10.70311005 -28.65522766 22.38371277 Z " fill="#CAE5F0" transform="translate(49.40522766113281,-0.1337127685546875)"/>
<path d="M0 0 C0.81971934 -0.00226556 1.63943868 -0.00453111 2.483998 -0.00686532 C5.21665672 -0.01316944 7.94926538 -0.01237827 10.68193054 -0.0115509 C12.64700891 -0.01454463 14.61208669 -0.01794765 16.5771637 -0.02172852 C21.90576623 -0.03055088 27.23435269 -0.03290589 32.56296182 -0.0335443 C35.89467997 -0.03425579 39.22639405 -0.036392 42.55811119 -0.03904152 C54.18874241 -0.04828904 65.81936218 -0.05237714 77.44999695 -0.05158997 C88.27959467 -0.0509893 99.10914256 -0.06154046 109.93872768 -0.07733363 C119.24680608 -0.09042266 128.55486822 -0.09577329 137.86295575 -0.09513456 C143.41767103 -0.09487997 148.97234202 -0.09770924 154.52704811 -0.10831261 C159.75307954 -0.11801653 164.97902452 -0.11805703 170.20505905 -0.11079597 C172.1181965 -0.10975299 174.03133941 -0.11209594 175.94446754 -0.11815643 C192.50884391 -0.1672127 204.7252661 0.64885772 217.46977234 12.50871277 C220.97797485 16.26870014 223.53358068 20.43250166 225.59477234 25.13371277 C225.85226257 25.68478699 226.10975281 26.23586121 226.37504578 26.80363464 C229.32155183 34.08323783 229.17228225 41.74649649 229.30326843 49.47941589 C229.34444623 51.86482167 229.40726953 54.24888981 229.47367859 56.63371277 C229.69163488 65.54215565 229.51170328 74.25955283 228.59477234 83.13371277 C229.58477234 83.13371277 230.57477234 83.13371277 231.59477234 83.13371277 C232.50939202 87.79345577 232.73758294 92.30291234 232.72416687 97.03507996 C232.72679535 98.18737343 232.72679535 98.18737343 232.72947693 99.36294556 C232.73385516 101.88551637 232.73097287 104.40801632 232.72758484 106.93058777 C232.72825876 108.68842075 232.72922952 110.44625364 232.73048401 112.2040863 C232.73195528 115.87904248 232.72982373 119.55397428 232.72514343 123.22892761 C232.71942965 127.94575806 232.72273915 132.6625318 232.7287159 137.3793602 C232.73232258 141.00464814 232.73118272 144.62992254 232.7285881 148.25521088 C232.72792 149.99519609 232.7287432 151.73518253 232.73106766 153.47516632 C232.73359774 155.90011883 232.72974931 158.32497817 232.72416687 160.74992371 C232.7261911 161.47201523 232.72821533 162.19410675 232.7303009 162.93807983 C232.70904041 167.90517663 232.70904041 167.90517663 231.59477234 170.13371277 C230.60477234 170.13371277 229.61477234 170.13371277 228.59477234 170.13371277 C228.66572491 170.80517712 228.73667747 171.47664146 228.80978012 172.16845322 C229.45829296 178.70345215 229.73196764 185.1370473 229.70121765 191.70109558 C229.70052025 192.7430584 229.69982285 193.78502121 229.69910431 194.85855865 C229.69534748 198.43467784 229.68412371 202.0107347 229.67289734 205.58683777 C229.6680468 208.25686152 229.66357426 210.92688369 229.65953064 213.59690857 C229.65073775 218.95950667 229.63934914 224.3220925 229.62582374 229.6846807 C229.60405495 238.3303671 229.58832107 246.9760421 229.57792664 255.62174988 C229.57661255 256.70976788 229.57529847 257.79778588 229.57394457 258.91877413 C229.5712315 261.17344602 229.56851943 263.42811791 229.5658083 265.6827898 C229.53718286 289.02555229 229.48382017 312.36817269 229.41085052 335.71083832 C229.37073133 348.69213188 229.33842908 361.67335938 229.32377625 374.65470886 C229.310771 386.16386577 229.28390431 397.67289101 229.24015927 409.1819737 C229.21765618 415.22214631 229.20185561 421.26215751 229.20288849 427.30237579 C229.20363321 432.93390421 229.18575863 438.56506702 229.15360451 444.19650078 C229.14511012 446.25318421 229.14335242 448.30990865 229.14896965 450.36660194 C229.19605432 470.25119085 229.19605432 470.25119085 224.59477234 478.13371277 C224.06754578 479.07086121 223.54031921 480.00800964 222.99711609 480.97355652 C222.51371765 481.66578308 222.03031921 482.35800964 221.53227234 483.07121277 C220.8033075 484.13662292 220.8033075 484.13662292 220.05961609 485.22355652 C218.66906537 487.03683465 217.32378924 488.63898 215.59477234 490.13371277 C214.93477234 490.13371277 214.27477234 490.13371277 213.59477234 490.13371277 C213.59477234 490.79371277 213.59477234 491.45371277 213.59477234 492.13371277 C207.29112684 496.2726635 202.50719917 497.86824745 194.99993896 497.77536011 C194.07642197 497.78386563 193.15290497 497.79237115 192.2014026 497.80113441 C189.12908572 497.82329143 186.05799296 497.81000093 182.98564148 497.79655457 C180.7739577 497.80497309 178.56228109 497.81550056 176.35061646 497.82797241 C170.35880586 497.85498965 164.3674122 497.85032765 158.37556767 497.83827186 C153.36809467 497.83113246 148.36069837 497.83964536 143.35323137 497.84817725 C130.86300238 497.86925865 118.37297328 497.86013566 105.88277005 497.83670095 C95.72584602 497.81845441 85.56928561 497.82935282 75.41239929 497.86100769 C63.59858635 497.8978248 51.78495639 497.91412007 39.97107214 497.90159541 C33.72435568 497.89511477 27.47794506 497.89708045 21.23126411 497.92091942 C15.3565565 497.94219804 9.48259571 497.93415795 3.60793495 497.90382576 C1.45614391 497.8975077 -0.69570534 497.90133645 -2.84745407 497.91623688 C-23.71936239 498.0490193 -23.71936239 498.0490193 -31.40522766 491.13371277 C-32.25858704 490.38347839 -33.11194641 489.63324402 -33.99116516 488.86027527 C-43.11251033 478.14568204 -45.71625969 468.7956789 -45.64573669 454.86480713 C-45.64744554 453.62967689 -45.64915439 452.39454666 -45.65091503 451.12198824 C-45.65363424 447.70584386 -45.6474046 444.28992996 -45.6373589 440.87381351 C-45.62870615 437.18542233 -45.63164586 433.49703801 -45.63316345 429.80863953 C-45.63421115 423.42228581 -45.6279466 417.03597302 -45.61668777 410.64962959 C-45.60042012 401.4161032 -45.59522347 392.18259656 -45.59271179 382.94905739 C-45.58833668 367.96754784 -45.57503255 352.98606009 -45.55610657 338.00456238 C-45.53774302 323.45313119 -45.52358884 308.90170594 -45.51509094 294.3502655 C-45.5145655 293.4530189 -45.51404005 292.55577229 -45.51349868 291.6313364 C-45.51088857 287.13002543 -45.50836116 282.62871442 -45.50587487 278.12740338 C-45.48514809 240.79615778 -45.44992755 203.46493697 -45.40522766 166.13371277 C-46.39522766 166.13371277 -47.38522766 166.13371277 -48.40522766 166.13371277 C-48.60412952 161.98834536 -48.78726402 157.84242055 -48.96772766 153.69621277 C-49.02380188 152.5315448 -49.0798761 151.36687683 -49.13764954 150.16691589 C-49.41181816 143.67825839 -49.33369525 137.56421052 -48.40522766 131.13371277 C-47.41522766 131.13371277 -46.42522766 131.13371277 -45.40522766 131.13371277 C-45.40522766 126.84371277 -45.40522766 122.55371277 -45.40522766 118.13371277 C-46.39522766 117.80371277 -47.38522766 117.47371277 -48.40522766 117.13371277 C-49.23753737 110.13302118 -49.56036597 103.2435531 -49.53022766 96.19621277 C-49.53409485 95.26486511 -49.53796204 94.33351746 -49.54194641 93.37394714 C-49.54065735 92.48127136 -49.53936829 91.58859558 -49.53804016 90.66886902 C-49.53691223 89.86844177 -49.5357843 89.06801453 -49.53462219 88.24333191 C-49.40522766 86.13371277 -49.40522766 86.13371277 -48.40522766 83.13371277 C-47.41522766 83.13371277 -46.42522766 83.13371277 -45.40522766 83.13371277 C-45.41411011 82.53173569 -45.42299255 81.92975861 -45.43214417 81.30953979 C-45.52119392 74.99834263 -45.58119914 68.68732627 -45.62495422 62.37565613 C-45.64496941 60.02564739 -45.6721901 57.67568781 -45.70698547 55.32585144 C-45.7559489 51.9322541 -45.77829826 48.53931981 -45.79585266 45.14543152 C-45.8164978 44.10851669 -45.83714294 43.07160187 -45.8584137 42.00326538 C-45.8623136 29.09232346 -41.07722559 20.10334629 -32.30366516 10.93840027 C-22.87229169 1.90694369 -12.79150029 -0.02624155 0 0 Z M-28.65522766 22.38371277 C-36.05666659 31.88786434 -35.97865317 42.00966153 -35.91316223 53.51750183 C-35.91777549 55.28442523 -35.92413126 57.05134479 -35.93207121 58.81825638 C-35.94872924 63.65633553 -35.94053419 68.49409801 -35.92812634 73.33217812 C-35.91906374 78.55653119 -35.93305158 83.78083041 -35.94404602 89.00517273 C-35.96182288 99.2328324 -35.95799494 109.46037458 -35.94639546 119.68803883 C-35.93735815 128.00103532 -35.93613843 136.31399891 -35.94049072 144.6269989 C-35.94110365 145.81061138 -35.94171659 146.99422387 -35.94234809 148.21370339 C-35.94362701 150.61826675 -35.94492386 153.0228301 -35.94623846 155.42739344 C-35.95764182 177.96954439 -35.94453436 200.51163026 -35.92303699 223.05377054 C-35.90516625 242.39164846 -35.90827043 261.72943033 -35.92671204 281.06730652 C-35.94812303 303.52936255 -35.9565432 325.99136155 -35.94426298 348.45342636 C-35.9429888 350.84909311 -35.94173132 353.24475987 -35.94049072 355.64042664 C-35.93987362 356.81910883 -35.93925652 357.99779103 -35.93862072 359.21219087 C-35.93516851 367.51421113 -35.94099339 375.81619518 -35.95040894 384.11820984 C-35.96163281 394.23701986 -35.9585806 404.35570578 -35.93728596 414.47450161 C-35.92678088 419.63625862 -35.92264461 424.79780878 -35.93588257 429.95956421 C-35.94782332 434.6870469 -35.94121604 439.41413149 -35.91997236 444.1415782 C-35.91551345 445.8493827 -35.91775655 447.55722101 -35.92747551 449.26500368 C-35.99374975 461.88068684 -34.59169186 472.68361935 -25.40522766 482.13371277 C-18.06805872 488.06140761 -11.46166751 490.43919106 -1.99963379 490.40113831 C-1.16781265 490.40566942 -0.33599151 490.41020053 0.52103633 490.41486895 C3.30063611 490.4275012 6.08003966 490.42589334 8.85966492 490.42424011 C10.85577648 490.4302261 12.85188573 490.4370318 14.84799194 490.44459534 C20.26543593 490.46225546 25.68281673 490.46695073 31.10028672 490.46822691 C34.48643732 490.46964906 37.87257188 490.47391989 41.25871849 490.47922134 C53.07623183 490.4977217 64.89370007 490.50589195 76.71122742 490.50431824 C87.71981698 490.50311686 98.72821047 490.52421859 109.73675042 490.55580556 C119.194268 490.58197332 128.65172155 490.59268532 138.10927504 490.59140742 C143.75512853 490.59089793 149.40080776 490.59657393 155.04662514 490.61776352 C160.3580825 490.63715416 165.66919952 490.63726454 170.98066902 490.62273026 C172.92648059 490.6206421 174.87231351 490.62534345 176.81808853 490.63745117 C190.25677173 490.90688756 190.25677173 490.90688756 202.59477234 486.13371277 C203.80906921 485.4124823 203.80906921 485.4124823 205.04789734 484.67668152 C212.29737802 479.20805153 216.69026808 473.18544266 218.59477234 464.13371277 C219.03395226 458.37832836 219.00462677 452.63942805 218.98245239 446.87017822 C218.98662813 445.10411965 218.99210696 443.33806377 218.9987722 441.57201284 C219.0132139 436.73172585 219.00898606 431.89160932 219.00160539 427.05131304 C218.99687291 421.82626604 219.00938426 416.60125588 219.0196228 411.3762207 C219.03681425 401.14510255 219.03765013 390.9140458 219.0324099 380.68291695 C219.0283678 372.36703959 219.02981224 364.05118037 219.03515816 355.73530388 C219.03590658 354.55155591 219.036655 353.36780793 219.0374261 352.14818881 C219.03895758 349.74338392 219.04049593 347.33857904 219.04204107 344.93377417 C219.05576724 322.38496455 219.05032748 299.83618963 219.03885586 277.28738081 C219.02892225 256.65998821 219.04186618 236.03268529 219.06579005 215.40530653 C219.09017378 194.22175151 219.09979077 173.03823828 219.09313732 151.85466951 C219.08964364 139.96301346 219.09188714 128.0714264 219.10938835 116.17978096 C219.12410116 106.05729305 219.1247577 95.93492271 219.10731744 85.81243712 C219.09879776 80.64865761 219.09668169 75.48508821 219.11196899 70.32131958 C219.12579688 65.59195352 219.12107726 60.86297798 219.10172976 56.13363462 C219.09796365 54.42512444 219.10090932 52.71658312 219.11134141 51.00810064 C219.18664016 37.72939222 217.55848313 28.26084984 208.10258484 18.33683777 C200.44690455 11.61128686 192.47054222 9.98178761 182.54394531 9.99327087 C181.73818548 9.99029975 180.93242565 9.98732863 180.10224885 9.98426747 C177.40484052 9.97560256 174.70747668 9.97407409 172.01005554 9.97257996 C170.07482814 9.96795019 168.13960165 9.96292532 166.20437622 9.95753479 C160.94797049 9.94442338 155.69157754 9.93796819 150.43515801 9.93352413 C147.14934827 9.93059116 143.86354199 9.9264859 140.57773399 9.92201996 C130.291988 9.90834786 120.00624997 9.89868 109.72049552 9.89481807 C97.85695911 9.89033898 85.99353801 9.87279677 74.13003665 9.84381747 C64.95363229 9.82218207 55.77726032 9.81211278 46.60083073 9.81077695 C41.12318848 9.80973019 35.64565467 9.80384976 30.16803932 9.78595734 C25.0125914 9.76944475 19.85733305 9.76733666 14.70186806 9.77609634 C12.81452933 9.77686503 10.92718028 9.77254631 9.0398674 9.76263809 C-6.27411534 9.68698588 -17.63579113 10.70311005 -28.65522766 22.38371277 Z " fill="#262D41" transform="translate(49.40522766113281,-0.1337127685546875)"/>
<path d="M0 0 C1.27852844 -0.0127597 2.55705688 -0.02551941 3.87432861 -0.03866577 C5.27266285 -0.04172406 6.67099912 -0.04395148 8.06933594 -0.04541016 C9.50559624 -0.05183899 10.94185523 -0.05856741 12.37811279 -0.06558228 C15.39094068 -0.07756079 18.40365389 -0.08126273 21.41650391 -0.08007812 C25.26443683 -0.07987537 29.11162753 -0.10712844 32.95938492 -0.14162254 C35.92780891 -0.16394203 38.89605607 -0.16791407 41.86455536 -0.16685867 C43.28224993 -0.16920893 44.69994981 -0.17800002 46.11756134 -0.19352341 C60.02228601 -0.3314762 60.02228601 -0.3314762 65.80371094 4.29052734 C68.27692724 8.0003518 68.35081995 10.98940876 67.80371094 15.29052734 C66.1457558 19.02092639 64.28485566 21.19033679 60.80371094 23.29052734 C57.78152466 23.68493652 57.78152466 23.68493652 54.20263672 23.71044922 C53.54844757 23.71891876 52.89425842 23.72738831 52.22024536 23.7361145 C50.06297223 23.75946558 47.90641327 23.76050709 45.74902344 23.75927734 C44.24453447 23.76638094 42.7400482 23.77408023 41.23556519 23.78234863 C38.08323639 23.79578964 34.93115801 23.7973644 31.77880859 23.79150391 C27.74790835 23.78561286 23.71821469 23.81617453 19.68754768 23.85662079 C16.58016539 23.8825304 13.47307219 23.88537224 10.36559677 23.88172913 C8.8800847 23.88341785 7.39455893 23.89303672 5.90915298 23.91087341 C-7.14992218 24.0504137 -7.14992218 24.0504137 -11.09130859 20.94091797 C-14.06632675 17.19505887 -14.59555181 14.05531413 -14.55175781 9.29052734 C-13.94659705 5.88566679 -11.81251916 4.3591744 -9.19628906 2.29052734 C-5.66957848 -0.06061304 -4.17862541 0.02826776 0 0 Z " fill="#222C3F" transform="translate(114.1962890625,22.70947265625)"/>
<path d="M0 0 C1.64510941 0.00015915 3.29022379 0.00585551 4.93530273 0.01586914 C6.23164894 0.01799156 6.23164894 0.01799156 7.55418396 0.02015686 C10.32578941 0.025773 13.09731528 0.0383282 15.86889648 0.05102539 C17.74324428 0.05603831 19.61759334 0.06060158 21.49194336 0.06469727 C26.09679192 0.07574767 30.70158069 0.09302309 35.30639648 0.11352539 C35.80139648 3.08352539 35.80139648 3.08352539 36.30639648 6.11352539 C23.10639648 6.11352539 9.90639648 6.11352539 -3.69360352 6.11352539 C-4.02360352 4.46352539 -4.35360352 2.81352539 -4.69360352 1.11352539 C-3.69360352 0.11352539 -3.69360352 0.11352539 0 0 Z " fill="#000203" transform="translate(116.693603515625,31.886474609375)"/>
<path d="M0 0 C1.32 1.32 2.64 2.64 4 4 C3.01 5.485 3.01 5.485 2 7 C5.31114834 8.12880057 8.58978257 9.21302675 12 10 C12 10.99 12 11.98 12 13 C12.66 13.33 13.32 13.66 14 14 C13.34 14 12.68 14 12 14 C12.33 14.99 12.66 15.98 13 17 C12.0625 19.6875 12.0625 19.6875 11 22 C1.82104025 18.09894211 -3.95210461 11.4322798 -9 3 C-8.67 2.34 -8.34 1.68 -8 1 C-6.68 1.99 -5.36 2.98 -4 4 C-2.68 2.68 -1.36 1.36 0 0 Z " fill="#2F3548" transform="translate(16,474)"/>
<path d="M0 0 C2.375 1.5 2.375 1.5 4 3 C3.6875 6.375 3.6875 6.375 3 10 C0 12 0 12 -3.5625 11.8125 C-7 11 -7 11 -9 8 C-9.35384949 5.16920408 -9.3920891 3.63169911 -7.875 1.1875 C-5.11646047 -0.55957504 -3.20161236 -0.39203417 0 0 Z " fill="#050B15" transform="translate(173,29)"/>
<path d="M0 0 C0.66 0.99 1.32 1.98 2 3 C0.9438069 6.84756057 -1.04410354 9.6489104 -3.5 12.75 C-4.1084375 13.52859375 -4.716875 14.3071875 -5.34375 15.109375 C-7 17 -7 17 -9 18 C-10.2063366 12.77254141 -9.75612577 8.23471686 -9 3 C-7.68 3 -6.36 3 -5 3 C-5 2.34 -5 1.68 -5 1 C-3.35 0.67 -1.7 0.34 0 0 Z " fill="#2E3849" transform="translate(273,472)"/>
<path d="M0 0 C-0.78697325 3.41021743 -1.87119943 6.68885166 -3 10 C-3.53625 9.773125 -4.0725 9.54625 -4.625 9.3125 C-7.19714407 8.74852584 -7.19714407 8.74852584 -10 10.5 C-13.26594121 12.13297061 -13.74195318 12.0672912 -17 11 C-15.42173185 9.53618641 -13.83717771 8.07914837 -12.25 6.625 C-11.36828125 5.81289062 -10.4865625 5.00078125 -9.578125 4.1640625 C-6.26559074 1.38354132 -4.34734693 0 0 0 Z " fill="#303142" transform="translate(31,3)"/>
<path d="M0 0 C1.2065625 0.0309375 1.2065625 0.0309375 2.4375 0.0625 C1.4475 0.7225 0.4575 1.3825 -0.5625 2.0625 C-0.8925 3.0525 -1.2225 4.0425 -1.5625 5.0625 C11.3075 4.7325 24.1775 4.4025 37.4375 4.0625 C37.4375 4.7225 37.4375 5.3825 37.4375 6.0625 C24.2375 6.0625 11.0375 6.0625 -2.5625 6.0625 C-2.8925 4.4125 -3.2225 2.7625 -3.5625 1.0625 C-2.5625 0.0625 -2.5625 0.0625 0 0 Z " fill="#080D14" transform="translate(115.5625,31.9375)"/>
<path d="M0 0 C1.31157516 2.62315032 0.89649988 4.23033436 0.5625 7.125 C0.46066406 8.03507812 0.35882813 8.94515625 0.25390625 9.8828125 C0.17011719 10.58148438 0.08632813 11.28015625 0 12 C-0.6290625 11.8040625 -1.258125 11.608125 -1.90625 11.40625 C-2.94265625 11.20515625 -2.94265625 11.20515625 -4 11 C-4.495 11.495 -4.99 11.99 -5.5 12.5 C-5.995 12.995 -6.49 13.49 -7 14 C-9.1875 13.6875 -9.1875 13.6875 -11 13 C-10.29875 12.34 -9.5975 11.68 -8.875 11 C-5.50583305 7.65014059 -2.77531275 3.84347436 0 0 Z " fill="#1C2A3B" transform="translate(264,473)"/>
<path d="M0 0 C2.62690764 1.31345382 3.08100461 2.73051033 4.4375 5.3125 C6.0808662 8.42922901 7.82291773 11.22628294 10 14 C6.23312136 14 5.08809695 13.76462683 2 12 C2.33 11.34 2.66 10.68 3 10 C3 9.34 3 8.68 3 8 C1.27917076 8 -0.34228586 8.5722028 -2 9 C-2 8.34 -2 7.68 -2 7 C-2.66 6.67 -3.32 6.34 -4 6 C-3.67 5.34 -3.34 4.68 -3 4 C-2.01 4 -1.02 4 0 4 C0 2.68 0 1.36 0 0 Z " fill="#1E253A" transform="translate(15,469)"/>
<path d="M0 0 C1.32 1.32 2.64 2.64 4 4 C3.34 4.66 2.68 5.32 2 6 C1.01 6 0.02 6 -1 6 C-1.66 7.32 -2.32 8.64 -3 10 C-8.57142857 4.85714286 -8.57142857 4.85714286 -9 1 C-6 2 -6 2 -4 4 C-2.68 2.68 -1.36 1.36 0 0 Z " fill="#414557" transform="translate(16,474)"/>
<path d="M0 0 C1.67542976 0.28604898 3.34385343 0.61781233 5 1 C5 2.65 5 4.3 5 6 C0.25 7.125 0.25 7.125 -2 6 C-1.125 1.125 -1.125 1.125 0 0 Z " fill="#151C27" transform="translate(169,31)"/>
<path d="M0 0 C3.53586843 0.57760323 5.20958289 1.8272067 7.6875 4.375 C8.28949219 4.98085937 8.89148438 5.58671875 9.51171875 6.2109375 C11 8 11 8 12 11 C11.34 11.66 10.68 12.32 10 13 C10 12.34 10 11.68 10 11 C9.34 11 8.68 11 8 11 C7.566875 10.2575 7.13375 9.515 6.6875 8.75 C4.83393179 5.72937032 2.76386905 4.16627574 0 2 C0 1.34 0 0.68 0 0 Z " fill="#3D3E4D" transform="translate(259,8)"/>
<path d="M0 0 C0.66 0 1.32 0 2 0 C2.33 0.99 2.66 1.98 3 3 C1.78515625 4.82421875 1.78515625 4.82421875 0.0625 6.6875 C-0.50339844 7.31011719 -1.06929688 7.93273437 -1.65234375 8.57421875 C-2.09707031 9.04472656 -2.54179687 9.51523437 -3 10 C-5 8 -5 8 -5.125 5.375 C-5.08375 4.59125 -5.0425 3.8075 -5 3 C-1.25 1.875 -1.25 1.875 1 3 C0.67 2.01 0.34 1.02 0 0 Z " fill="#3A424E" transform="translate(268,480)"/>
<path d="M0 0 C0.66 0.33 1.32 0.66 2 1 C2.625 3.5625 2.625 3.5625 3 6 C-1.625 9 -1.625 9 -5 9 C-3.7508258 5.54074837 -2.32472205 2.85306797 0 0 Z " fill="#3D3D4C" transform="translate(13,15)"/>
<path d="M0 0 C-0.33 0.99 -0.66 1.98 -1 3 C-1.99 3 -2.98 3 -4 3 C-4.33 3.99 -4.66 4.98 -5 6 C-7.31 6.33 -9.62 6.66 -12 7 C-5.36842105 0 -5.36842105 0 0 0 Z " fill="#545360" transform="translate(31,3)"/>
<path d="M0 0 C2.475 0.99 2.475 0.99 5 2 C4.01 2.33 3.02 2.66 2 3 C2 3.66 2 4.32 2 5 C1.34 5 0.68 5 0 5 C-0.33 5.66 -0.66 6.32 -1 7 C-1.66 6.67 -2.32 6.34 -3 6 C-2.67 4.68 -2.34 3.36 -2 2 C-1.34 2 -0.68 2 0 2 C0 1.34 0 0.68 0 0 Z " fill="#393F51" transform="translate(276,81)"/>
<path d="M0 0 C0.99 0 1.98 0 3 0 C4.83691257 3.78187881 5.15837626 5.94568308 4 10 C2.23537317 6.91190305 2 5.76687864 2 2 C1.34 2 0.68 2 0 2 C0 1.34 0 0.68 0 0 Z " fill="#2D3643" transform="translate(177,27)"/>
<path d="M0 0 C1.32 0.33 2.64 0.66 4 1 C4.625 2.875 4.625 2.875 5 5 C4.34 5.66 3.68 6.32 3 7 C0 3.375 0 3.375 0 0 Z " fill="#252D3A" transform="translate(175,28)"/>
<path d="M0 0 C3.66881155 0.70554068 6.70450534 2.27735506 10 4 C8.02 4.99 8.02 4.99 6 6 C4 4.625 4 4.625 2 3 C2 2.34 2 1.68 2 1 C1.34 0.67 0.68 0.34 0 0 Z " fill="#5B5C6B" transform="translate(249,2)"/>
</svg>
